PathFileType	4	(X/Y/Z)	D:\TRACE\v60_Jaco2_6-2-23\BothDRS_Motion3_2-v60.trc
DataRate	CameraRate	NumFrames	NumMarkers	Units	OrigDataRate	OrigDataStartFrame	OrigNumFrames
100.00	100.00	      28	9	mm	100.00	876	      7000
Frame#	Time	front left toe			Front right toe			aft left toe			aft right toe			Arm			FL body			FR body			AL Body			AR Body			
		X1	Y1	Z1	X2	Y2	Z2	X3	Y3	Z3	X4	Y4	Z4	X5	Y5	Z5	X6	Y6	Z6	X7	Y7	Z7	X8	Y8	Z8	X9	Y9	Z9	

876	8.750	-161.01093	125.49200	-282.58566	222.34164	1.33817	-278.60809	-170.48122	28.29583	331.43378	191.25475	151.38800	345.90591	55.33232	1128.50977	-554.23029	-42.49453	500.77576	-461.06683	115.59131	497.00650	-456.89435	-57.35241	585.61102	479.53128	95.29387	572.45508	483.80246	
877	8.760	-161.67146	131.26259	-285.55014	222.76389	1.43285	-278.42944	-170.20404	28.27023	331.35437	192.00723	156.41977	343.10962	55.72836	1128.32434	-555.14825	-42.05161	500.62170	-461.57654	116.07310	496.91223	-457.41919	-57.33119	585.56982	478.86386	95.00934	572.48096	483.21298	
878	8.770	-162.22638	134.05479	-287.56818	223.16322	1.46612	-278.30215	-169.20444	27.71408	331.26944	193.28043	158.34167	340.56219	55.93024	1128.35913	-555.76019	-41.58749	500.67972	-462.26675	116.11985	497.06808	-457.83209	-57.60596	585.64105	477.96329	95.18736	572.51563	482.43686	
879	8.780	-162.63982	133.11372	-289.18869	223.33040	1.50567	-278.22382	-169.04205	27.59664	331.10834	194.64584	157.27792	339.01563	56.00914	1128.43311	-556.50812	-41.23290	500.78256	-463.13855	116.80817	496.90372	-458.68152	-58.31832	585.79004	477.34662	94.66560	572.33508	482.12839	
880	8.790	-162.76196	129.07703	-290.69669	223.63033	1.61019	-278.23474	-169.27127	27.85893	331.18579	195.52310	153.83189	337.62436	56.44706	1128.36865	-557.23169	-40.49104	500.53748	-463.60397	118.17661	496.61490	-459.20294	-58.83971	585.75488	476.72070	93.84880	572.43542	481.50809	
881	8.800	-162.00305	124.04429	-292.79785	223.91579	1.72393	-278.13504	-169.18980	27.79202	331.11450	195.56261	149.06654	335.80508	57.26231	1128.38782	-557.63666	-40.10577	500.56100	-464.17542	117.59086	496.94312	-459.57089	-59.16127	585.61658	475.88205	93.01968	572.69745	481.01205	
882	8.810	-161.28380	117.98794	-295.04678	224.03018	1.76599	-278.12259	-169.08488	27.70599	331.13373	195.16101	143.26596	334.24985	57.97638	1128.52173	-558.06769	-40.04815	500.79602	-464.86139	118.79012	496.73514	-460.31744	-59.53876	585.79645	475.31870	91.87367	572.82440	480.37814	
883	8.820	-160.75827	111.42270	-297.61795	224.33705	1.87254	-278.00665	-168.91373	27.66959	331.13248	194.72394	136.60030	332.28540	58.55249	1128.72131	-558.56659	-39.77526	500.80078	-465.56799	118.23433	497.08325	-460.69635	-60.00433	585.72510	474.53024	92.51460	572.68811	479.84903	
884	8.830	-160.54657	104.09334	-300.52390	224.69901	2.01971	-277.85263	-168.77592	27.58941	331.13428	194.75259	129.10893	329.99142	58.86047	1128.92419	-559.10968	-39.63813	500.92706	-466.50217	118.46201	497.12369	-461.27676	-60.37744	585.52612	473.96143	91.97102	572.54816	479.24023	
885	8.840	-160.43053	95.87317	-303.19879	224.91861	2.07097	-277.81204	-168.71248	27.52890	331.10809	194.93962	120.72239	327.55161	59.00497	1128.86230	-559.44110	-39.07162	500.73657	-467.06244	118.79570	497.14960	-461.90408	-60.88663	585.30383	473.20193	91.24287	572.28217	478.67041	
886	8.850	-160.53490	87.22666	-305.82306	225.02158	2.06375	-277.81924	-168.65363	27.42604	330.96353	194.96869	111.14185	325.02917	58.65864	1128.86145	-560.11182	-38.77880	500.76141	-467.85782	119.09136	497.08481	-462.58411	-61.48991	585.05060	472.37189	90.69691	572.01331	478.06635	
887	8.860	-160.55832	77.79999	-308.50500	225.18901	2.07241	-277.84775	-168.51787	27.34144	330.96939	195.49271	101.41449	322.74017	58.46474	1128.83008	-560.69440	-38.31181	500.60007	-468.49780	119.40163	496.98566	-463.23434	-61.72957	584.87354	471.82977	90.37157	571.68933	477.32355	
888	8.870	-160.42767	68.21182	-310.79755	225.32536	2.04762	-277.89786	-167.81903	26.86994	330.86893	195.32062	91.07146	320.47549	58.35661	1128.99780	-561.32184	-38.27646	500.71606	-469.46918	119.69611	496.97534	-463.85739	-62.16103	584.30188	470.67038	89.04201	571.41400	476.63232	
889	8.880	-160.41800	58.73075	-313.37183	225.48096	1.99901	-278.04489	-167.57213	26.73393	330.82516	194.68993	81.84303	318.56369	58.91625	1128.85242	-561.70355	-38.42796	500.83664	-470.48978	119.77543	497.23688	-464.55716	-62.83496	583.82898	469.99759	88.26125	571.02893	475.69763	
890	8.890	-159.86421	48.59945	-314.85513	225.85358	2.05742	-278.02414	-167.24908	26.61471	330.74075	193.90715	72.67558	316.92136	59.38044	1128.96948	-562.29126	-38.14538	500.84985	-471.46417	120.03271	497.08917	-465.46851	-63.47157	583.61316	469.19125	88.02814	570.80725	475.11917	
891	8.900	-159.66426	39.03284	-315.85315	226.13800	1.96349	-278.11490	-167.13734	26.49261	330.68689	193.24530	63.59699	315.92697	59.50416	1129.08008	-562.86353	-37.63895	500.60922	-472.09869	120.16705	497.06708	-466.24094	-63.77665	583.16010	468.16110	87.44184	570.48657	474.25110	
892	8.910	-159.85138	30.10088	-316.02853	226.62682	1.92632	-278.19598	-166.76695	26.24364	330.63727	192.88622	54.94438	315.14301	59.64906	1129.05591	-563.37610	-37.64882	500.54187	-473.33191	120.30299	496.97400	-467.22623	-64.23776	582.87195	467.22031	86.92515	570.20837	473.35980	
893	8.920	-160.10175	22.45705	-316.39957	226.87666	1.95177	-278.21423	-166.97484	26.54166	330.68011	192.19629	47.32891	314.69415	59.66289	1128.98755	-564.25665	-37.64932	500.48495	-474.27719	121.36900	496.67032	-468.03870	-64.73312	582.56964	466.15540	87.80331	569.84802	472.59476	
894	8.930	-160.42215	15.84659	-316.37521	227.14819	1.93350	-278.27103	-166.78107	26.57844	330.57593	192.07788	40.96643	314.77853	59.62729	1128.89209	-565.13782	-37.02135	500.24719	-475.03000	120.72626	496.85675	-468.96060	-65.27303	582.11023	465.27606	87.28313	569.49237	471.61551	
895	8.940	-160.92361	10.05069	-316.60226	227.49812	2.02765	-278.16833	-166.15376	26.18192	330.39740	191.68105	34.76324	314.57721	59.48179	1128.70581	-566.21045	-37.12093	500.33804	-476.41415	120.92412	496.80118	-469.82162	-65.70788	581.91974	464.17099	86.55018	569.32935	470.73611	
896	8.950	-161.56139	4.01581	-317.40527	227.80331	2.07791	-278.12399	-166.40585	26.60598	330.55444	191.42674	28.53929	314.34979	59.38273	1128.32007	-567.42401	-37.13496	500.18335	-477.54156	121.92550	496.45444	-470.74850	-66.49348	581.70929	462.97247	86.19550	569.13776	469.73615	
897	8.960	-161.91177	2.53920	-319.23105	227.98029	2.03985	-278.07907	-166.15303	26.42625	330.35312	191.61241	27.92660	311.70865	59.53636	1128.03992	-568.32947	-36.48903	499.68896	-478.09003	121.30690	496.59058	-471.78665	-66.93583	581.90967	461.97318	85.55659	569.20898	468.65588	
898	8.970	-162.29082	3.20261	-319.81998	228.03535	2.04589	-278.11783	-166.05820	26.58087	330.25604	192.57487	25.30176	312.78992	59.26222	1128.17700	-569.65784	-36.57725	500.11737	-479.64395	121.59818	496.64847	-472.52417	-67.83297	582.58185	460.76627	84.91570	570.13379	467.81125	
899	8.980	-162.06651	1.84781	-319.20172	228.14624	2.29125	-278.21753	-165.43755	26.90511	329.72263	193.14587	26.76107	312.09421	59.51748	1128.61414	-571.02771	-35.98186	499.86276	-480.08951	121.77219	496.90683	-473.41605	-68.61959	584.14197	459.58746	82.60210	572.05005	466.53760	
900	8.990	-161.80353	1.12080	-318.59943	227.44792	5.61997	-277.71606	-164.71559	29.93549	330.46753	192.79051	26.21460	313.94275	59.48434	1129.26135	-573.04657	-35.88017	500.43585	-481.19104	122.07192	497.37909	-474.06256	-69.04648	585.11639	458.61148	83.46999	573.24274	465.97620	
901	9.000	-161.78514	1.34484	-319.02469	223.58931	8.97903	-274.44559	-162.51155	33.25191	332.94852	192.79123	26.02163	312.54227	59.56263	1129.55591	-574.98749	-35.65355	501.48102	-482.50528	123.24165	498.12219	-475.17776	-69.63386	585.67273	457.78571	81.63213	574.02264	464.78751	
902	9.010	-161.63055	1.82376	-319.50262	220.48610	15.99390	-272.49805	-158.57739	40.51336	333.28787	193.27623	26.08754	312.85422	59.89846	1129.51428	-576.08728	-35.23596	501.73807	-483.59253	123.52939	498.61530	-476.15698	-70.32475	585.77783	456.28500	82.74407	573.95911	464.03616	
903	9.020	-161.29155	1.38060	-319.45871	219.01532	25.09122	-272.33801	-157.20786	49.88811	333.08487	193.32138	26.18968	312.64941	59.58723	1129.63123	-577.19275	-34.72566	501.56821	-484.22391	123.04535	498.77884	-477.06186	-70.51203	585.88660	455.49045	82.17048	574.16760	462.89127	
